<svg class="rich-terminal" viewBox="0 0 1482 1026.0" xmlns="http://www.w3.org/2000/svg">
    <!-- Generated with Rich https://www.textualize.io -->
    <style>

    @font-face {
        font-family: "Fira Code";
        src: local("FiraCode-Regular"),
                url("https://cdnjs.cloudflare.com/ajax/libs/firacode/6.2.0/woff2/FiraCode-Regular.woff2") format("woff2"),
                url("https://cdnjs.cloudflare.com/ajax/libs/firacode/6.2.0/woff/FiraCode-Regular.woff") format("woff");
        font-style: normal;
        font-weight: 400;
    }
    @font-face {
        font-family: "Fira Code";
        src: local("FiraCode-Bold"),
                url("https://cdnjs.cloudflare.com/ajax/libs/firacode/6.2.0/woff2/FiraCode-Bold.woff2") format("woff2"),
                url("https://cdnjs.cloudflare.com/ajax/libs/firacode/6.2.0/woff/FiraCode-Bold.woff") format("woff");
        font-style: bold;
        font-weight: 700;
    }

    .terminal-2096343629-matrix {
        font-family: Fira Code, monospace;
        font-size: 20px;
        line-height: 24.4px;
        font-variant-east-asian: full-width;
    }

    .terminal-2096343629-title {
        font-size: 18px;
        font-weight: bold;
        font-family: arial;
    }

    .terminal-2096343629-r1 { fill: #c5c8c6 }
.terminal-2096343629-r2 { fill: #ffd45a }
.terminal-2096343629-r3 { fill: #ffd45a;font-weight: bold }
.terminal-2096343629-r4 { fill: #efe8d1 }
.terminal-2096343629-r5 { fill: #8faa83;font-weight: bold }
.terminal-2096343629-r6 { fill: #8faa83 }
.terminal-2096343629-r7 { fill: #60785b }
    </style>

    <defs>
    <clipPath id="terminal-2096343629-clip-terminal">
      <rect x="0" y="0" width="1463.0" height="975.0" />
    </clipPath>
    <clipPath id="terminal-2096343629-line-0">
    <rect x="0" y="1.5" width="1464" height="24.65"/>
            </clipPath>
<clipPath id="terminal-2096343629-line-1">
    <rect x="0" y="25.9" width="1464" height="24.65"/>
            </clipPath>
<clipPath id="terminal-2096343629-line-2">
    <rect x="0" y="50.3" width="1464" height="24.65"/>
            </clipPath>
<clipPath id="terminal-2096343629-line-3">
    <rect x="0" y="74.7" width="1464" height="24.65"/>
            </clipPath>
<clipPath id="terminal-2096343629-line-4">
    <rect x="0" y="99.1" width="1464" height="24.65"/>
            </clipPath>
<clipPath id="terminal-2096343629-line-5">
    <rect x="0" y="123.5" width="1464" height="24.65"/>
            </clipPath>
<clipPath id="terminal-2096343629-line-6">
    <rect x="0" y="147.9" width="1464" height="24.65"/>
            </clipPath>
<clipPath id="terminal-2096343629-line-7">
    <rect x="0" y="172.3" width="1464" height="24.65"/>
            </clipPath>
<clipPath id="terminal-2096343629-line-8">
    <rect x="0" y="196.7" width="1464" height="24.65"/>
            </clipPath>
<clipPath id="terminal-2096343629-line-9">
    <rect x="0" y="221.1" width="1464" height="24.65"/>
            </clipPath>
<clipPath id="terminal-2096343629-line-10">
    <rect x="0" y="245.5" width="1464" height="24.65"/>
            </clipPath>
<clipPath id="terminal-2096343629-line-11">
    <rect x="0" y="269.9" width="1464" height="24.65"/>
            </clipPath>
<clipPath id="terminal-2096343629-line-12">
    <rect x="0" y="294.3" width="1464" height="24.65"/>
            </clipPath>
<clipPath id="terminal-2096343629-line-13">
    <rect x="0" y="318.7" width="1464" height="24.65"/>
            </clipPath>
<clipPath id="terminal-2096343629-line-14">
    <rect x="0" y="343.1" width="1464" height="24.65"/>
            </clipPath>
<clipPath id="terminal-2096343629-line-15">
    <rect x="0" y="367.5" width="1464" height="24.65"/>
            </clipPath>
<clipPath id="terminal-2096343629-line-16">
    <rect x="0" y="391.9" width="1464" height="24.65"/>
            </clipPath>
<clipPath id="terminal-2096343629-line-17">
    <rect x="0" y="416.3" width="1464" height="24.65"/>
            </clipPath>
<clipPath id="terminal-2096343629-line-18">
    <rect x="0" y="440.7" width="1464" height="24.65"/>
            </clipPath>
<clipPath id="terminal-2096343629-line-19">
    <rect x="0" y="465.1" width="1464" height="24.65"/>
            </clipPath>
<clipPath id="terminal-2096343629-line-20">
    <rect x="0" y="489.5" width="1464" height="24.65"/>
            </clipPath>
<clipPath id="terminal-2096343629-line-21">
    <rect x="0" y="513.9" width="1464" height="24.65"/>
            </clipPath>
<clipPath id="terminal-2096343629-line-22">
    <rect x="0" y="538.3" width="1464" height="24.65"/>
            </clipPath>
<clipPath id="terminal-2096343629-line-23">
    <rect x="0" y="562.7" width="1464" height="24.65"/>
            </clipPath>
<clipPath id="terminal-2096343629-line-24">
    <rect x="0" y="587.1" width="1464" height="24.65"/>
            </clipPath>
<clipPath id="terminal-2096343629-line-25">
    <rect x="0" y="611.5" width="1464" height="24.65"/>
            </clipPath>
<clipPath id="terminal-2096343629-line-26">
    <rect x="0" y="635.9" width="1464" height="24.65"/>
            </clipPath>
<clipPath id="terminal-2096343629-line-27">
    <rect x="0" y="660.3" width="1464" height="24.65"/>
            </clipPath>
<clipPath id="terminal-2096343629-line-28">
    <rect x="0" y="684.7" width="1464" height="24.65"/>
            </clipPath>
<clipPath id="terminal-2096343629-line-29">
    <rect x="0" y="709.1" width="1464" height="24.65"/>
            </clipPath>
<clipPath id="terminal-2096343629-line-30">
    <rect x="0" y="733.5" width="1464" height="24.65"/>
            </clipPath>
<clipPath id="terminal-2096343629-line-31">
    <rect x="0" y="757.9" width="1464" height="24.65"/>
            </clipPath>
<clipPath id="terminal-2096343629-line-32">
    <rect x="0" y="782.3" width="1464" height="24.65"/>
            </clipPath>
<clipPath id="terminal-2096343629-line-33">
    <rect x="0" y="806.7" width="1464" height="24.65"/>
            </clipPath>
<clipPath id="terminal-2096343629-line-34">
    <rect x="0" y="831.1" width="1464" height="24.65"/>
            </clipPath>
<clipPath id="terminal-2096343629-line-35">
    <rect x="0" y="855.5" width="1464" height="24.65"/>
            </clipPath>
<clipPath id="terminal-2096343629-line-36">
    <rect x="0" y="879.9" width="1464" height="24.65"/>
            </clipPath>
<clipPath id="terminal-2096343629-line-37">
    <rect x="0" y="904.3" width="1464" height="24.65"/>
            </clipPath>
<clipPath id="terminal-2096343629-line-38">
    <rect x="0" y="928.7" width="1464" height="24.65"/>
            </clipPath>
    </defs>

    <rect fill="#292929" stroke="rgba(255,255,255,0.35)" stroke-width="1" x="1" y="1" width="1480" height="1024" rx="8"/><text class="terminal-2096343629-title" fill="#c5c8c6" text-anchor="middle" x="740" y="27">2048&#160;—&#160;Terminal</text>
            <g transform="translate(26,22)">
            <circle cx="0" cy="0" r="7" fill="#ff5f57"/>
            <circle cx="22" cy="0" r="7" fill="#febc2e"/>
            <circle cx="44" cy="0" r="7" fill="#28c840"/>
            </g>
        
    <g transform="translate(9, 41)" clip-path="url(#terminal-2096343629-clip-terminal)">
    <rect fill="#14110d" x="0" y="1.5" width="1464" height="24.65" shape-rendering="crispEdges"/><rect fill="#14110d" x="0" y="25.9" width="1464" height="24.65" shape-rendering="crispEdges"/><rect fill="#14110d" x="0" y="50.3" width="1464" height="24.65" shape-rendering="crispEdges"/><rect fill="#14110d" x="0" y="74.7" width="1464" height="24.65" shape-rendering="crispEdges"/><rect fill="#14110d" x="0" y="99.1" width="1464" height="24.65" shape-rendering="crispEdges"/><rect fill="#14110d" x="0" y="123.5" width="1464" height="24.65" shape-rendering="crispEdges"/><rect fill="#14110d" x="0" y="147.9" width="1464" height="24.65" shape-rendering="crispEdges"/><rect fill="#14110d" x="0" y="172.3" width="1464" height="24.65" shape-rendering="crispEdges"/><rect fill="#14110d" x="0" y="196.7" width="1464" height="24.65" shape-rendering="crispEdges"/><rect fill="#14110d" x="0" y="221.1" width="366" height="24.65" shape-rendering="crispEdges"/><rect fill="#07190f" x="366" y="221.1" width="12.2" height="24.65" shape-rendering="crispEdges"/><rect fill="#07190f" x="378.2" y="221.1" width="707.6" height="24.65" shape-rendering="crispEdges"/><rect fill="#07190f" x="1085.8" y="221.1" width="12.2" height="24.65" shape-rendering="crispEdges"/><rect fill="#14110d" x="1098" y="221.1" width="366" height="24.65" shape-rendering="crispEdges"/><rect fill="#14110d" x="0" y="245.5" width="366" height="24.65" shape-rendering="crispEdges"/><rect fill="#07190f" x="366" y="245.5" width="12.2" height="24.65" shape-rendering="crispEdges"/><rect fill="#07190f" x="378.2" y="245.5" width="707.6" height="24.65" shape-rendering="crispEdges"/><rect fill="#07190f" x="1085.8" y="245.5" width="12.2" height="24.65" shape-rendering="crispEdges"/><rect fill="#14110d" x="1098" y="245.5" width="366" height="24.65" shape-rendering="crispEdges"/><rect fill="#14110d" x="0" y="269.9" width="366" height="24.65" shape-rendering="crispEdges"/><rect fill="#07190f" x="366" y="269.9" width="12.2" height="24.65" shape-rendering="crispEdges"/><rect fill="#07190f" x="378.2" y="269.9" width="36.6" height="24.65" shape-rendering="crispEdges"/><rect fill="#07190f" x="414.8" y="269.9" width="122" height="24.65" shape-rendering="crispEdges"/><rect fill="#07190f" x="536.8" y="269.9" width="378.2" height="24.65" shape-rendering="crispEdges"/><rect fill="#07190f" x="915" y="269.9" width="134.2" height="24.65" shape-rendering="crispEdges"/><rect fill="#07190f" x="1049.2" y="269.9" width="36.6" height="24.65" shape-rendering="crispEdges"/><rect fill="#07190f" x="1085.8" y="269.9" width="12.2" height="24.65" shape-rendering="crispEdges"/><rect fill="#14110d" x="1098" y="269.9" width="366" height="24.65" shape-rendering="crispEdges"/><rect fill="#14110d" x="0" y="294.3" width="366" height="24.65" shape-rendering="crispEdges"/><rect fill="#07190f" x="366" y="294.3" width="12.2" height="24.65" shape-rendering="crispEdges"/><rect fill="#07190f" x="378.2" y="294.3" width="36.6" height="24.65" shape-rendering="crispEdges"/><rect fill="#07190f" x="414.8" y="294.3" width="134.2" height="24.65" shape-rendering="crispEdges"/><rect fill="#07190f" x="549" y="294.3" width="366" height="24.65" shape-rendering="crispEdges"/><rect fill="#07190f" x="915" y="294.3" width="134.2" height="24.65" shape-rendering="crispEdges"/><rect fill="#07190f" x="1049.2" y="294.3" width="36.6" height="24.65" shape-rendering="crispEdges"/><rect fill="#07190f" x="1085.8" y="294.3" width="12.2" height="24.65" shape-rendering="crispEdges"/><rect fill="#14110d" x="1098" y="294.3" width="366" height="24.65" shape-rendering="crispEdges"/><rect fill="#14110d" x="0" y="318.7" width="366" height="24.65" shape-rendering="crispEdges"/><rect fill="#07190f" x="366" y="318.7" width="12.2" height="24.65" shape-rendering="crispEdges"/><rect fill="#07190f" x="378.2" y="318.7" width="36.6" height="24.65" shape-rendering="crispEdges"/><rect fill="#07190f" x="414.8" y="318.7" width="85.4" height="24.65" shape-rendering="crispEdges"/><rect fill="#07190f" x="500.2" y="318.7" width="451.4" height="24.65" shape-rendering="crispEdges"/><rect fill="#07190f" x="951.6" y="318.7" width="97.6" height="24.65" shape-rendering="crispEdges"/><rect fill="#07190f" x="1049.2" y="318.7" width="36.6" height="24.65" shape-rendering="crispEdges"/><rect fill="#07190f" x="1085.8" y="318.7" width="12.2" height="24.65" shape-rendering="crispEdges"/><rect fill="#14110d" x="1098" y="318.7" width="366" height="24.65" shape-rendering="crispEdges"/><rect fill="#14110d" x="0" y="343.1" width="366" height="24.65" shape-rendering="crispEdges"/><rect fill="#07190f" x="366" y="343.1" width="12.2" height="24.65" shape-rendering="crispEdges"/><rect fill="#07190f" x="378.2" y="343.1" width="36.6" height="24.65" shape-rendering="crispEdges"/><rect fill="#07190f" x="414.8" y="343.1" width="134.2" height="24.65" shape-rendering="crispEdges"/><rect fill="#07190f" x="549" y="343.1" width="366" height="24.65" shape-rendering="crispEdges"/><rect fill="#07190f" x="915" y="343.1" width="134.2" height="24.65" shape-rendering="crispEdges"/><rect fill="#07190f" x="1049.2" y="343.1" width="36.6" height="24.65" shape-rendering="crispEdges"/><rect fill="#07190f" x="1085.8" y="343.1" width="12.2" height="24.65" shape-rendering="crispEdges"/><rect fill="#14110d" x="1098" y="343.1" width="366" height="24.65" shape-rendering="crispEdges"/><rect fill="#14110d" x="0" y="367.5" width="366" height="24.65" shape-rendering="crispEdges"/><rect fill="#07190f" x="366" y="367.5" width="12.2" height="24.65" shape-rendering="crispEdges"/><rect fill="#07190f" x="378.2" y="367.5" width="36.6" height="24.65" shape-rendering="crispEdges"/><rect fill="#07190f" x="414.8" y="367.5" width="122" height="24.65" shape-rendering="crispEdges"/><rect fill="#07190f" x="536.8" y="367.5" width="378.2" height="24.65" shape-rendering="crispEdges"/><rect fill="#07190f" x="915" y="367.5" width="134.2" height="24.65" shape-rendering="crispEdges"/><rect fill="#07190f" x="1049.2" y="367.5" width="36.6" height="24.65" shape-rendering="crispEdges"/><rect fill="#07190f" x="1085.8" y="367.5" width="12.2" height="24.65" shape-rendering="crispEdges"/><rect fill="#14110d" x="1098" y="367.5" width="366" height="24.65" shape-rendering="crispEdges"/><rect fill="#14110d" x="0" y="391.9" width="366" height="24.65" shape-rendering="crispEdges"/><rect fill="#07190f" x="366" y="391.9" width="12.2" height="24.65" shape-rendering="crispEdges"/><rect fill="#07190f" x="378.2" y="391.9" width="36.6" height="24.65" shape-rendering="crispEdges"/><rect fill="#07190f" x="414.8" y="391.9" width="634.4" height="24.65" shape-rendering="crispEdges"/><rect fill="#07190f" x="1049.2" y="391.9" width="36.6" height="24.65" shape-rendering="crispEdges"/><rect fill="#07190f" x="1085.8" y="391.9" width="12.2" height="24.65" shape-rendering="crispEdges"/><rect fill="#14110d" x="1098" y="391.9" width="366" height="24.65" shape-rendering="crispEdges"/><rect fill="#14110d" x="0" y="416.3" width="366" height="24.65" shape-rendering="crispEdges"/><rect fill="#07190f" x="366" y="416.3" width="12.2" height="24.65" shape-rendering="crispEdges"/><rect fill="#07190f" x="378.2" y="416.3" width="36.6" height="24.65" shape-rendering="crispEdges"/><rect fill="#07190f" x="414.8" y="416.3" width="134.2" height="24.65" shape-rendering="crispEdges"/><rect fill="#07190f" x="549" y="416.3" width="353.8" height="24.65" shape-rendering="crispEdges"/><rect fill="#07190f" x="902.8" y="416.3" width="146.4" height="24.65" shape-rendering="crispEdges"/><rect fill="#07190f" x="1049.2" y="416.3" width="36.6" height="24.65" shape-rendering="crispEdges"/><rect fill="#07190f" x="1085.8" y="416.3" width="12.2" height="24.65" shape-rendering="crispEdges"/><rect fill="#14110d" x="1098" y="416.3" width="366" height="24.65" shape-rendering="crispEdges"/><rect fill="#14110d" x="0" y="440.7" width="366" height="24.65" shape-rendering="crispEdges"/><rect fill="#07190f" x="366" y="440.7" width="12.2" height="24.65" shape-rendering="crispEdges"/><rect fill="#07190f" x="378.2" y="440.7" width="36.6" height="24.65" shape-rendering="crispEdges"/><rect fill="#07190f" x="414.8" y="440.7" width="634.4" height="24.65" shape-rendering="crispEdges"/><rect fill="#07190f" x="1049.2" y="440.7" width="36.6" height="24.65" shape-rendering="crispEdges"/><rect fill="#07190f" x="1085.8" y="440.7" width="12.2" height="24.65" shape-rendering="crispEdges"/><rect fill="#14110d" x="1098" y="440.7" width="366" height="24.65" shape-rendering="crispEdges"/><rect fill="#14110d" x="0" y="465.1" width="366" height="24.65" shape-rendering="crispEdges"/><rect fill="#07190f" x="366" y="465.1" width="12.2" height="24.65" shape-rendering="crispEdges"/><rect fill="#07190f" x="378.2" y="465.1" width="36.6" height="24.65" shape-rendering="crispEdges"/><rect fill="#07190f" x="414.8" y="465.1" width="268.4" height="24.65" shape-rendering="crispEdges"/><rect fill="#07190f" x="683.2" y="465.1" width="97.6" height="24.65" shape-rendering="crispEdges"/><rect fill="#07190f" x="780.8" y="465.1" width="268.4" height="24.65" shape-rendering="crispEdges"/><rect fill="#07190f" x="1049.2" y="465.1" width="36.6" height="24.65" shape-rendering="crispEdges"/><rect fill="#07190f" x="1085.8" y="465.1" width="12.2" height="24.65" shape-rendering="crispEdges"/><rect fill="#14110d" x="1098" y="465.1" width="366" height="24.65" shape-rendering="crispEdges"/><rect fill="#14110d" x="0" y="489.5" width="366" height="24.65" shape-rendering="crispEdges"/><rect fill="#07190f" x="366" y="489.5" width="12.2" height="24.65" shape-rendering="crispEdges"/><rect fill="#07190f" x="378.2" y="489.5" width="36.6" height="24.65" shape-rendering="crispEdges"/><rect fill="#07190f" x="414.8" y="489.5" width="231.8" height="24.65" shape-rendering="crispEdges"/><rect fill="#07190f" x="646.6" y="489.5" width="158.6" height="24.65" shape-rendering="crispEdges"/><rect fill="#07190f" x="805.2" y="489.5" width="244" height="24.65" shape-rendering="crispEdges"/><rect fill="#07190f" x="1049.2" y="489.5" width="36.6" height="24.65" shape-rendering="crispEdges"/><rect fill="#07190f" x="1085.8" y="489.5" width="12.2" height="24.65" shape-rendering="crispEdges"/><rect fill="#14110d" x="1098" y="489.5" width="366" height="24.65" shape-rendering="crispEdges"/><rect fill="#14110d" x="0" y="513.9" width="366" height="24.65" shape-rendering="crispEdges"/><rect fill="#07190f" x="366" y="513.9" width="12.2" height="24.65" shape-rendering="crispEdges"/><rect fill="#07190f" x="378.2" y="513.9" width="36.6" height="24.65" shape-rendering="crispEdges"/><rect fill="#07190f" x="414.8" y="513.9" width="244" height="24.65" shape-rendering="crispEdges"/><rect fill="#07190f" x="658.8" y="513.9" width="134.2" height="24.65" shape-rendering="crispEdges"/><rect fill="#07190f" x="793" y="513.9" width="256.2" height="24.65" shape-rendering="crispEdges"/><rect fill="#07190f" x="1049.2" y="513.9" width="36.6" height="24.65" shape-rendering="crispEdges"/><rect fill="#07190f" x="1085.8" y="513.9" width="12.2" height="24.65" shape-rendering="crispEdges"/><rect fill="#14110d" x="1098" y="513.9" width="366" height="24.65" shape-rendering="crispEdges"/><rect fill="#14110d" x="0" y="538.3" width="366" height="24.65" shape-rendering="crispEdges"/><rect fill="#07190f" x="366" y="538.3" width="12.2" height="24.65" shape-rendering="crispEdges"/><rect fill="#07190f" x="378.2" y="538.3" width="36.6" height="24.65" shape-rendering="crispEdges"/><rect fill="#07190f" x="414.8" y="538.3" width="231.8" height="24.65" shape-rendering="crispEdges"/><rect fill="#07190f" x="646.6" y="538.3" width="170.8" height="24.65" shape-rendering="crispEdges"/><rect fill="#07190f" x="817.4" y="538.3" width="231.8" height="24.65" shape-rendering="crispEdges"/><rect fill="#07190f" x="1049.2" y="538.3" width="36.6" height="24.65" shape-rendering="crispEdges"/><rect fill="#07190f" x="1085.8" y="538.3" width="12.2" height="24.65" shape-rendering="crispEdges"/><rect fill="#14110d" x="1098" y="538.3" width="366" height="24.65" shape-rendering="crispEdges"/><rect fill="#14110d" x="0" y="562.7" width="366" height="24.65" shape-rendering="crispEdges"/><rect fill="#07190f" x="366" y="562.7" width="12.2" height="24.65" shape-rendering="crispEdges"/><rect fill="#07190f" x="378.2" y="562.7" width="36.6" height="24.65" shape-rendering="crispEdges"/><rect fill="#07190f" x="414.8" y="562.7" width="244" height="24.65" shape-rendering="crispEdges"/><rect fill="#07190f" x="658.8" y="562.7" width="146.4" height="24.65" shape-rendering="crispEdges"/><rect fill="#07190f" x="805.2" y="562.7" width="244" height="24.65" shape-rendering="crispEdges"/><rect fill="#07190f" x="1049.2" y="562.7" width="36.6" height="24.65" shape-rendering="crispEdges"/><rect fill="#07190f" x="1085.8" y="562.7" width="12.2" height="24.65" shape-rendering="crispEdges"/><rect fill="#14110d" x="1098" y="562.7" width="366" height="24.65" shape-rendering="crispEdges"/><rect fill="#14110d" x="0" y="587.1" width="366" height="24.65" shape-rendering="crispEdges"/><rect fill="#07190f" x="366" y="587.1" width="12.2" height="24.65" shape-rendering="crispEdges"/><rect fill="#07190f" x="378.2" y="587.1" width="36.6" height="24.65" shape-rendering="crispEdges"/><rect fill="#07190f" x="414.8" y="587.1" width="207.4" height="24.65" shape-rendering="crispEdges"/><rect fill="#07190f" x="622.2" y="587.1" width="207.4" height="24.65" shape-rendering="crispEdges"/><rect fill="#07190f" x="829.6" y="587.1" width="219.6" height="24.65" shape-rendering="crispEdges"/><rect fill="#07190f" x="1049.2" y="587.1" width="36.6" height="24.65" shape-rendering="crispEdges"/><rect fill="#07190f" x="1085.8" y="587.1" width="12.2" height="24.65" shape-rendering="crispEdges"/><rect fill="#14110d" x="1098" y="587.1" width="366" height="24.65" shape-rendering="crispEdges"/><rect fill="#14110d" x="0" y="611.5" width="366" height="24.65" shape-rendering="crispEdges"/><rect fill="#07190f" x="366" y="611.5" width="12.2" height="24.65" shape-rendering="crispEdges"/><rect fill="#07190f" x="378.2" y="611.5" width="36.6" height="24.65" shape-rendering="crispEdges"/><rect fill="#07190f" x="414.8" y="611.5" width="634.4" height="24.65" shape-rendering="crispEdges"/><rect fill="#07190f" x="1049.2" y="611.5" width="36.6" height="24.65" shape-rendering="crispEdges"/><rect fill="#07190f" x="1085.8" y="611.5" width="12.2" height="24.65" shape-rendering="crispEdges"/><rect fill="#14110d" x="1098" y="611.5" width="366" height="24.65" shape-rendering="crispEdges"/><rect fill="#14110d" x="0" y="635.9" width="366" height="24.65" shape-rendering="crispEdges"/><rect fill="#07190f" x="366" y="635.9" width="12.2" height="24.65" shape-rendering="crispEdges"/><rect fill="#07190f" x="378.2" y="635.9" width="36.6" height="24.65" shape-rendering="crispEdges"/><rect fill="#07190f" x="414.8" y="635.9" width="622.2" height="24.65" shape-rendering="crispEdges"/><rect fill="#07190f" x="1037" y="635.9" width="12.2" height="24.65" shape-rendering="crispEdges"/><rect fill="#07190f" x="1049.2" y="635.9" width="36.6" height="24.65" shape-rendering="crispEdges"/><rect fill="#07190f" x="1085.8" y="635.9" width="12.2" height="24.65" shape-rendering="crispEdges"/><rect fill="#14110d" x="1098" y="635.9" width="366" height="24.65" shape-rendering="crispEdges"/><rect fill="#14110d" x="0" y="660.3" width="366" height="24.65" shape-rendering="crispEdges"/><rect fill="#07190f" x="366" y="660.3" width="12.2" height="24.65" shape-rendering="crispEdges"/><rect fill="#07190f" x="378.2" y="660.3" width="36.6" height="24.65" shape-rendering="crispEdges"/><rect fill="#07190f" x="414.8" y="660.3" width="256.2" height="24.65" shape-rendering="crispEdges"/><rect fill="#07190f" x="671" y="660.3" width="109.8" height="24.65" shape-rendering="crispEdges"/><rect fill="#07190f" x="780.8" y="660.3" width="268.4" height="24.65" shape-rendering="crispEdges"/><rect fill="#07190f" x="1049.2" y="660.3" width="36.6" height="24.65" shape-rendering="crispEdges"/><rect fill="#07190f" x="1085.8" y="660.3" width="12.2" height="24.65" shape-rendering="crispEdges"/><rect fill="#14110d" x="1098" y="660.3" width="366" height="24.65" shape-rendering="crispEdges"/><rect fill="#14110d" x="0" y="684.7" width="366" height="24.65" shape-rendering="crispEdges"/><rect fill="#07190f" x="366" y="684.7" width="12.2" height="24.65" shape-rendering="crispEdges"/><rect fill="#07190f" x="378.2" y="684.7" width="707.6" height="24.65" shape-rendering="crispEdges"/><rect fill="#07190f" x="1085.8" y="684.7" width="12.2" height="24.65" shape-rendering="crispEdges"/><rect fill="#14110d" x="1098" y="684.7" width="366" height="24.65" shape-rendering="crispEdges"/><rect fill="#14110d" x="0" y="709.1" width="366" height="24.65" shape-rendering="crispEdges"/><rect fill="#07190f" x="366" y="709.1" width="12.2" height="24.65" shape-rendering="crispEdges"/><rect fill="#07190f" x="378.2" y="709.1" width="707.6" height="24.65" shape-rendering="crispEdges"/><rect fill="#07190f" x="1085.8" y="709.1" width="12.2" height="24.65" shape-rendering="crispEdges"/><rect fill="#14110d" x="1098" y="709.1" width="366" height="24.65" shape-rendering="crispEdges"/><rect fill="#14110d" x="0" y="733.5" width="1464" height="24.65" shape-rendering="crispEdges"/><rect fill="#14110d" x="0" y="757.9" width="1464" height="24.65" shape-rendering="crispEdges"/><rect fill="#14110d" x="0" y="782.3" width="1464" height="24.65" shape-rendering="crispEdges"/><rect fill="#14110d" x="0" y="806.7" width="1464" height="24.65" shape-rendering="crispEdges"/><rect fill="#14110d" x="0" y="831.1" width="1464" height="24.65" shape-rendering="crispEdges"/><rect fill="#14110d" x="0" y="855.5" width="1464" height="24.65" shape-rendering="crispEdges"/><rect fill="#14110d" x="0" y="879.9" width="1464" height="24.65" shape-rendering="crispEdges"/><rect fill="#14110d" x="0" y="904.3" width="1464" height="24.65" shape-rendering="crispEdges"/><rect fill="#14110d" x="0" y="928.7" width="1464" height="24.65" shape-rendering="crispEdges"/><rect fill="#14110d" x="0" y="953.1" width="1464" height="24.65" shape-rendering="crispEdges"/>
    <g class="terminal-2096343629-matrix">
    <text class="terminal-2096343629-r1" x="1464" y="20" textLength="12.2" clip-path="url(#terminal-2096343629-line-0)">
</text><text class="terminal-2096343629-r1" x="1464" y="44.4" textLength="12.2" clip-path="url(#terminal-2096343629-line-1)">
</text><text class="terminal-2096343629-r1" x="1464" y="68.8" textLength="12.2" clip-path="url(#terminal-2096343629-line-2)">
</text><text class="terminal-2096343629-r1" x="1464" y="93.2" textLength="12.2" clip-path="url(#terminal-2096343629-line-3)">
</text><text class="terminal-2096343629-r1" x="1464" y="117.6" textLength="12.2" clip-path="url(#terminal-2096343629-line-4)">
</text><text class="terminal-2096343629-r1" x="1464" y="142" textLength="12.2" clip-path="url(#terminal-2096343629-line-5)">
</text><text class="terminal-2096343629-r1" x="1464" y="166.4" textLength="12.2" clip-path="url(#terminal-2096343629-line-6)">
</text><text class="terminal-2096343629-r1" x="1464" y="190.8" textLength="12.2" clip-path="url(#terminal-2096343629-line-7)">
</text><text class="terminal-2096343629-r1" x="1464" y="215.2" textLength="12.2" clip-path="url(#terminal-2096343629-line-8)">
</text><text class="terminal-2096343629-r2" x="366" y="239.6" textLength="12.2" clip-path="url(#terminal-2096343629-line-9)">┏</text><text class="terminal-2096343629-r2" x="378.2" y="239.6" textLength="707.6" clip-path="url(#terminal-2096343629-line-9)">━━━━━━━━━━━━━━━━━━━━━━━━━━━━━━━━━━━━━━━━━━━━━━━━━━━━━━━━━━</text><text class="terminal-2096343629-r2" x="1085.8" y="239.6" textLength="12.2" clip-path="url(#terminal-2096343629-line-9)">┓</text><text class="terminal-2096343629-r1" x="1464" y="239.6" textLength="12.2" clip-path="url(#terminal-2096343629-line-9)">
</text><text class="terminal-2096343629-r2" x="366" y="264" textLength="12.2" clip-path="url(#terminal-2096343629-line-10)">┃</text><text class="terminal-2096343629-r2" x="1085.8" y="264" textLength="12.2" clip-path="url(#terminal-2096343629-line-10)">┃</text><text class="terminal-2096343629-r1" x="1464" y="264" textLength="12.2" clip-path="url(#terminal-2096343629-line-10)">
</text><text class="terminal-2096343629-r2" x="366" y="288.4" textLength="12.2" clip-path="url(#terminal-2096343629-line-11)">┃</text><text class="terminal-2096343629-r3" x="536.8" y="288.4" textLength="378.2" clip-path="url(#terminal-2096343629-line-11)">&#160;✦&#160;&#160;&#160;✦&#160;&#160;&#160;✦&#160;&#160;&#160;✦&#160;&#160;&#160;✦&#160;&#160;&#160;✦&#160;&#160;&#160;✦&#160;&#160;&#160;✦&#160;</text><text class="terminal-2096343629-r2" x="1085.8" y="288.4" textLength="12.2" clip-path="url(#terminal-2096343629-line-11)">┃</text><text class="terminal-2096343629-r1" x="1464" y="288.4" textLength="12.2" clip-path="url(#terminal-2096343629-line-11)">
</text><text class="terminal-2096343629-r2" x="366" y="312.8" textLength="12.2" clip-path="url(#terminal-2096343629-line-12)">┃</text><text class="terminal-2096343629-r3" x="549" y="312.8" textLength="366" clip-path="url(#terminal-2096343629-line-12)">&#160;╔══════════════════════════╗&#160;</text><text class="terminal-2096343629-r2" x="1085.8" y="312.8" textLength="12.2" clip-path="url(#terminal-2096343629-line-12)">┃</text><text class="terminal-2096343629-r1" x="1464" y="312.8" textLength="12.2" clip-path="url(#terminal-2096343629-line-12)">
</text><text class="terminal-2096343629-r2" x="366" y="337.2" textLength="12.2" clip-path="url(#terminal-2096343629-line-13)">┃</text><text class="terminal-2096343629-r3" x="500.2" y="337.2" textLength="451.4" clip-path="url(#terminal-2096343629-line-13)">&#160;║&#160;Y&#160;O&#160;U&#160;&#160;&#160;R&#160;E&#160;A&#160;C&#160;H&#160;E&#160;D&#160;&#160;&#160;2&#160;0&#160;4&#160;8&#160;║&#160;</text><text class="terminal-2096343629-r2" x="1085.8" y="337.2" textLength="12.2" clip-path="url(#terminal-2096343629-line-13)">┃</text><text class="terminal-2096343629-r1" x="1464" y="337.2" textLength="12.2" clip-path="url(#terminal-2096343629-line-13)">
</text><text class="terminal-2096343629-r2" x="366" y="361.6" textLength="12.2" clip-path="url(#terminal-2096343629-line-14)">┃</text><text class="terminal-2096343629-r3" x="549" y="361.6" textLength="366" clip-path="url(#terminal-2096343629-line-14)">&#160;╚══════════════════════════╝&#160;</text><text class="terminal-2096343629-r2" x="1085.8" y="361.6" textLength="12.2" clip-path="url(#terminal-2096343629-line-14)">┃</text><text class="terminal-2096343629-r1" x="1464" y="361.6" textLength="12.2" clip-path="url(#terminal-2096343629-line-14)">
</text><text class="terminal-2096343629-r2" x="366" y="386" textLength="12.2" clip-path="url(#terminal-2096343629-line-15)">┃</text><text class="terminal-2096343629-r3" x="536.8" y="386" textLength="378.2" clip-path="url(#terminal-2096343629-line-15)">&#160;✦&#160;&#160;&#160;✦&#160;&#160;&#160;✦&#160;&#160;&#160;✦&#160;&#160;&#160;✦&#160;&#160;&#160;✦&#160;&#160;&#160;✦&#160;&#160;&#160;✦&#160;</text><text class="terminal-2096343629-r2" x="1085.8" y="386" textLength="12.2" clip-path="url(#terminal-2096343629-line-15)">┃</text><text class="terminal-2096343629-r1" x="1464" y="386" textLength="12.2" clip-path="url(#terminal-2096343629-line-15)">
</text><text class="terminal-2096343629-r2" x="366" y="410.4" textLength="12.2" clip-path="url(#terminal-2096343629-line-16)">┃</text><text class="terminal-2096343629-r2" x="1085.8" y="410.4" textLength="12.2" clip-path="url(#terminal-2096343629-line-16)">┃</text><text class="terminal-2096343629-r1" x="1464" y="410.4" textLength="12.2" clip-path="url(#terminal-2096343629-line-16)">
</text><text class="terminal-2096343629-r2" x="366" y="434.8" textLength="12.2" clip-path="url(#terminal-2096343629-line-17)">┃</text><text class="terminal-2096343629-r4" x="549" y="434.8" textLength="353.8" clip-path="url(#terminal-2096343629-line-17)">✦&#160;&#160;&#160;✦&#160;&#160;&#160;✦&#160;&#160;&#160;✦&#160;&#160;&#160;✦&#160;&#160;&#160;✦&#160;&#160;&#160;✦&#160;&#160;&#160;✦</text><text class="terminal-2096343629-r2" x="1085.8" y="434.8" textLength="12.2" clip-path="url(#terminal-2096343629-line-17)">┃</text><text class="terminal-2096343629-r1" x="1464" y="434.8" textLength="12.2" clip-path="url(#terminal-2096343629-line-17)">
</text><text class="terminal-2096343629-r2" x="366" y="459.2" textLength="12.2" clip-path="url(#terminal-2096343629-line-18)">┃</text><text class="terminal-2096343629-r2" x="1085.8" y="459.2" textLength="12.2" clip-path="url(#terminal-2096343629-line-18)">┃</text><text class="terminal-2096343629-r1" x="1464" y="459.2" textLength="12.2" clip-path="url(#terminal-2096343629-line-18)">
</text><text class="terminal-2096343629-r2" x="366" y="483.6" textLength="12.2" clip-path="url(#terminal-2096343629-line-19)">┃</text><text class="terminal-2096343629-r5" x="683.2" y="483.6" textLength="97.6" clip-path="url(#terminal-2096343629-line-19)">2048&#160;4x4</text><text class="terminal-2096343629-r2" x="1085.8" y="483.6" textLength="12.2" clip-path="url(#terminal-2096343629-line-19)">┃</text><text class="terminal-2096343629-r1" x="1464" y="483.6" textLength="12.2" clip-path="url(#terminal-2096343629-line-19)">
</text><text class="terminal-2096343629-r2" x="366" y="508" textLength="12.2" clip-path="url(#terminal-2096343629-line-20)">┃</text><text class="terminal-2096343629-r6" x="646.6" y="508" textLength="158.6" clip-path="url(#terminal-2096343629-line-20)">Time:&#160;&#160;&#160;08:42</text><text class="terminal-2096343629-r2" x="1085.8" y="508" textLength="12.2" clip-path="url(#terminal-2096343629-line-20)">┃</text><text class="terminal-2096343629-r1" x="1464" y="508" textLength="12.2" clip-path="url(#terminal-2096343629-line-20)">
</text><text class="terminal-2096343629-r2" x="366" y="532.4" textLength="12.2" clip-path="url(#terminal-2096343629-line-21)">┃</text><text class="terminal-2096343629-r6" x="658.8" y="532.4" textLength="134.2" clip-path="url(#terminal-2096343629-line-21)">Moves:&#160;&#160;197</text><text class="terminal-2096343629-r2" x="1085.8" y="532.4" textLength="12.2" clip-path="url(#terminal-2096343629-line-21)">┃</text><text class="terminal-2096343629-r1" x="1464" y="532.4" textLength="12.2" clip-path="url(#terminal-2096343629-line-21)">
</text><text class="terminal-2096343629-r2" x="366" y="556.8" textLength="12.2" clip-path="url(#terminal-2096343629-line-22)">┃</text><text class="terminal-2096343629-r6" x="646.6" y="556.8" textLength="170.8" clip-path="url(#terminal-2096343629-line-22)">Score:&#160;&#160;12,640</text><text class="terminal-2096343629-r2" x="1085.8" y="556.8" textLength="12.2" clip-path="url(#terminal-2096343629-line-22)">┃</text><text class="terminal-2096343629-r1" x="1464" y="556.8" textLength="12.2" clip-path="url(#terminal-2096343629-line-22)">
</text><text class="terminal-2096343629-r2" x="366" y="581.2" textLength="12.2" clip-path="url(#terminal-2096343629-line-23)">┃</text><text class="terminal-2096343629-r6" x="658.8" y="581.2" textLength="146.4" clip-path="url(#terminal-2096343629-line-23)">Max:&#160;&#160;&#160;&#160;2048</text><text class="terminal-2096343629-r2" x="1085.8" y="581.2" textLength="12.2" clip-path="url(#terminal-2096343629-line-23)">┃</text><text class="terminal-2096343629-r1" x="1464" y="581.2" textLength="12.2" clip-path="url(#terminal-2096343629-line-23)">
</text><text class="terminal-2096343629-r2" x="366" y="605.6" textLength="12.2" clip-path="url(#terminal-2096343629-line-24)">┃</text><text class="terminal-2096343629-r6" x="622.2" y="605.6" textLength="207.4" clip-path="url(#terminal-2096343629-line-24)">Seed:&#160;&#160;&#160;417616549</text><text class="terminal-2096343629-r2" x="1085.8" y="605.6" textLength="12.2" clip-path="url(#terminal-2096343629-line-24)">┃</text><text class="terminal-2096343629-r1" x="1464" y="605.6" textLength="12.2" clip-path="url(#terminal-2096343629-line-24)">
</text><text class="terminal-2096343629-r2" x="366" y="630" textLength="12.2" clip-path="url(#terminal-2096343629-line-25)">┃</text><text class="terminal-2096343629-r2" x="1085.8" y="630" textLength="12.2" clip-path="url(#terminal-2096343629-line-25)">┃</text><text class="terminal-2096343629-r1" x="1464" y="630" textLength="12.2" clip-path="url(#terminal-2096343629-line-25)">
</text><text class="terminal-2096343629-r2" x="366" y="654.4" textLength="12.2" clip-path="url(#terminal-2096343629-line-26)">┃</text><text class="terminal-2096343629-r7" x="414.8" y="654.4" textLength="622.2" clip-path="url(#terminal-2096343629-line-26)">Enter&#160;/&#160;n&#160;—&#160;play&#160;again&#160;&#160;&#160;·&#160;&#160;&#160;c&#160;—&#160;continue&#160;&#160;&#160;·&#160;&#160;&#160;Esc</text><text class="terminal-2096343629-r2" x="1085.8" y="654.4" textLength="12.2" clip-path="url(#terminal-2096343629-line-26)">┃</text><text class="terminal-2096343629-r1" x="1464" y="654.4" textLength="12.2" clip-path="url(#terminal-2096343629-line-26)">
</text><text class="terminal-2096343629-r2" x="366" y="678.8" textLength="12.2" clip-path="url(#terminal-2096343629-line-27)">┃</text><text class="terminal-2096343629-r7" x="671" y="678.8" textLength="109.8" clip-path="url(#terminal-2096343629-line-27)">—&#160;dismiss</text><text class="terminal-2096343629-r2" x="1085.8" y="678.8" textLength="12.2" clip-path="url(#terminal-2096343629-line-27)">┃</text><text class="terminal-2096343629-r1" x="1464" y="678.8" textLength="12.2" clip-path="url(#terminal-2096343629-line-27)">
</text><text class="terminal-2096343629-r2" x="366" y="703.2" textLength="12.2" clip-path="url(#terminal-2096343629-line-28)">┃</text><text class="terminal-2096343629-r2" x="1085.8" y="703.2" textLength="12.2" clip-path="url(#terminal-2096343629-line-28)">┃</text><text class="terminal-2096343629-r1" x="1464" y="703.2" textLength="12.2" clip-path="url(#terminal-2096343629-line-28)">
</text><text class="terminal-2096343629-r2" x="366" y="727.6" textLength="12.2" clip-path="url(#terminal-2096343629-line-29)">┗</text><text class="terminal-2096343629-r2" x="378.2" y="727.6" textLength="707.6" clip-path="url(#terminal-2096343629-line-29)">━━━━━━━━━━━━━━━━━━━━━━━━━━━━━━━━━━━━━━━━━━━━━━━━━━━━━━━━━━</text><text class="terminal-2096343629-r2" x="1085.8" y="727.6" textLength="12.2" clip-path="url(#terminal-2096343629-line-29)">┛</text><text class="terminal-2096343629-r1" x="1464" y="727.6" textLength="12.2" clip-path="url(#terminal-2096343629-line-29)">
</text><text class="terminal-2096343629-r1" x="1464" y="752" textLength="12.2" clip-path="url(#terminal-2096343629-line-30)">
</text><text class="terminal-2096343629-r1" x="1464" y="776.4" textLength="12.2" clip-path="url(#terminal-2096343629-line-31)">
</text><text class="terminal-2096343629-r1" x="1464" y="800.8" textLength="12.2" clip-path="url(#terminal-2096343629-line-32)">
</text><text class="terminal-2096343629-r1" x="1464" y="825.2" textLength="12.2" clip-path="url(#terminal-2096343629-line-33)">
</text><text class="terminal-2096343629-r1" x="1464" y="849.6" textLength="12.2" clip-path="url(#terminal-2096343629-line-34)">
</text><text class="terminal-2096343629-r1" x="1464" y="874" textLength="12.2" clip-path="url(#terminal-2096343629-line-35)">
</text><text class="terminal-2096343629-r1" x="1464" y="898.4" textLength="12.2" clip-path="url(#terminal-2096343629-line-36)">
</text><text class="terminal-2096343629-r1" x="1464" y="922.8" textLength="12.2" clip-path="url(#terminal-2096343629-line-37)">
</text><text class="terminal-2096343629-r1" x="1464" y="947.2" textLength="12.2" clip-path="url(#terminal-2096343629-line-38)">
</text>
    </g>
    </g>
</svg>
